<?xml version="1.0" encoding="iso-8859-1"?>
<!-- Generator: Adobe Illustrator 19.1.0, SVG Export Plug-In . SVG Version: 6.00 Build 0)  -->
<svg version="1.1" id="Capa_1" xmlns="http://www.w3.org/2000/svg" xmlns:xlink="http://www.w3.org/1999/xlink" x="0px" y="0px"
	 viewBox="0 0 509.563 509.563" style="enable-background:new 0 0 509.563 509.563;" xml:space="preserve">
<g>
	<g>
		<g>
			<path style="fill:#222222;" d="M502.719,403.39L379.594,65.11l-6.844-18.782l-18.781,6.812l-75.188,27.375L260,87.36
				l6.844,18.781l123.125,338.313l6.844,18.781l18.781-6.844l75.188-27.344l18.781-6.844L502.719,403.39z M355.749,291.954
				l-59.844-164.438l75.157-27.375l59.875,164.438L355.749,291.954L355.749,291.954z M432.656,386.328
				c-12.975,4.722-27.309-1.963-32.031-14.938c-4.722-12.974,1.963-27.309,14.938-32.031c2.838-1.032,5.739-1.536,8.593-1.531
				c10.194,0.02,19.779,6.332,23.469,16.469C452.347,367.271,445.631,381.606,432.656,386.328L432.656,386.328z"/>
			<path style="fill:#222222;" d="M100,63.235H20H0v20v360v20h20h80h20v-20v-360v-20L100,63.235L100,63.235z M60,403.235
				c-13.807,0-25-11.193-25-25s11.193-25,25-25s25,11.193,25,25S73.807,403.235,60,403.235z M100,288.235H20v-175h80V288.235z"/>
			<path style="fill:#222222;" d="M230,63.235h-80h-20v20v360v20h20h80h20v-20v-360v-20L230,63.235L230,63.235z M190,403.235
				c-13.807,0-25-11.193-25-25s11.193-25,25-25s25,11.193,25,25S203.807,403.235,190,403.235z M230,288.235h-80v-175h80V288.235z"/>
		</g>
	</g>
	<g>
	</g>
	<g>
	</g>
	<g>
	</g>
	<g>
	</g>
	<g>
	</g>
	<g>
	</g>
	<g>
	</g>
	<g>
	</g>
	<g>
	</g>
	<g>
	</g>
	<g>
	</g>
	<g>
	</g>
	<g>
	</g>
	<g>
	</g>
	<g>
	</g>
</g>
<g>
</g>
<g>
</g>
<g>
</g>
<g>
</g>
<g>
</g>
<g>
</g>
<g>
</g>
<g>
</g>
<g>
</g>
<g>
</g>
<g>
</g>
<g>
</g>
<g>
</g>
<g>
</g>
<g>
</g>
</svg>
